# xmcd
#
# Track frame offsets: 
#        150
#        22682
#        51358
#        73040
#        96847
#        120159
#        146014
#        181879
#        214198
#        240924
#        281045
#        301975
#
# Disc length: 4468 seconds
#
# Revision: 0
# Processed by: cddbd v1.5.2PL0 Copyright (c) Steve Scherf et al.
# Submitted via: ExactAudioCopy v1.3
#
DISCID=a011720c
DTITLE=Buddy Guy - Buddy Guy And Friends
DYEAR=1996
DGENRE=Chicago Blues
TTITLE0=I Didn't Know My Mother Had A Son Like Me
TTITLE1=Have You Ever Been Lonesome
TTITLE2=Me and My Guitar
TTITLE3=Feeling Sexy
TTITLE4=You Gave Me The Blues
TTITLE5=Texas Flood
TTITLE6=Have A Little Mercy
TTITLE7=Garbage Man Blues
TTITLE8=Shorty Jumps In
TTITLE9=Ice Around My Heart
TTITLE10=You Can Make It If You Try
TTITLE11=Breaking Out On Top
EXTD=
EXTT0=
EXTT1=
EXTT2=
EXTT3=
EXTT4=
EXTT5=
EXTT6=
EXTT7=
EXTT8=
EXTT9=
EXTT10=
EXTT11=
PLAYORDER=
